<svg xmlns="http://www.w3.org/2000/svg" viewBox="0 0 387.19 103.63"><defs><style>.cls-1,.cls-2{fill:#5fbb46;}.cls-1,.cls-2,.cls-3,.cls-4{stroke:#231f20;stroke-miterlimit:10;}.cls-1{stroke-width:2px;}.cls-3{fill:#fbb040;}.cls-4,.cls-5{fill:#231f20;}</style></defs><g id="Layer_2" data-name="Layer 2"><path class="cls-1" d="M178,216c-4.56,2.14-13.67,4.28-25.34,4.28-27,0-47.4-16-47.4-45.53,0-28.17,20.36-47.27,50.1-47.27,12,0,19.5,2.41,22.78,4l-3,9.48a47.6,47.6,0,0,0-19.36-3.74c-22.49,0-37.43,13.49-37.43,37.12,0,22,13.52,36.18,36.86,36.18,7.55,0,15.23-1.47,20.21-3.74Z" transform="translate(-104.26 -123.7)"/><path class="cls-1" d="M193.51,129h12.38v43.4h.43c2.56-3.48,5.12-6.68,7.54-9.62L243.18,129h15.37l-34.73,38.19L261.26,219H246.6L215,174.78l-9.11,9.88V219H193.51Z" transform="translate(-104.26 -123.7)"/></g><g id="Layer_3" data-name="Layer 3"><path class="cls-2" d="M311.55,157.32c-.4-7.52-.88-16.56-.8-23.28h-.24c-1.84,6.32-4.08,13-6.8,20.48l-9.52,26.16h-5.28L280.19,155c-2.56-7.6-4.72-14.56-6.24-21h-.16c-.16,6.72-.56,15.76-1,23.84L271.31,181h-6.64l3.76-53.92h8.88l9.2,26.08c2.24,6.64,4.08,12.56,5.44,18.16h.24c1.36-5.44,3.28-11.36,5.68-18.16l9.6-26.08h8.88L319.71,181h-6.8Z" transform="translate(-104.26 -123.7)"/><path class="cls-2" d="M334.59,162.92c.16,9.52,6.24,13.44,13.28,13.44a25.46,25.46,0,0,0,10.72-2l1.2,5a31.36,31.36,0,0,1-12.88,2.4c-11.92,0-19-7.84-19-19.52S334.75,141.4,346,141.4c12.64,0,16,11.12,16,18.24a26.55,26.55,0,0,1-.24,3.28Zm20.64-5c.08-4.48-1.84-11.44-9.76-11.44-7.12,0-10.24,6.56-10.8,11.44Z" transform="translate(-104.26 -123.7)"/><path class="cls-2" d="M404.19,124.2V171c0,3.44.08,7.36.32,10h-6.32l-.32-6.72h-.16c-2.16,4.32-6.88,7.6-13.2,7.6-9.36,0-16.56-7.92-16.56-19.68-.08-12.88,7.92-20.8,17.36-20.8,5.92,0,9.92,2.8,11.68,5.92h.16V124.2Zm-7,33.84a12.43,12.43,0,0,0-.32-3,10.35,10.35,0,0,0-10.16-8.16c-7.28,0-11.6,6.4-11.6,15,0,7.84,3.84,14.32,11.44,14.32a10.58,10.58,0,0,0,10.32-8.4,12.23,12.23,0,0,0,.32-3Z" transform="translate(-104.26 -123.7)"/><path class="cls-2" d="M423.71,131.4a4.36,4.36,0,0,1-8.72,0,4.29,4.29,0,0,1,4.4-4.4A4.18,4.18,0,0,1,423.71,131.4ZM415.87,181V142.28h7V181Z" transform="translate(-104.26 -123.7)"/><path class="cls-2" d="M456,181l-.56-4.88h-.24a14.42,14.42,0,0,1-11.84,5.76c-7.84,0-11.84-5.52-11.84-11.12,0-9.36,8.32-14.48,23.29-14.4v-.8c0-3.2-.89-9-8.81-9a19.29,19.29,0,0,0-10.08,2.88l-1.6-4.64a24,24,0,0,1,12.72-3.44c11.85,0,14.73,8.08,14.73,15.84v14.48a55.63,55.63,0,0,0,.63,9.28Zm-1-19.76c-7.68-.16-16.4,1.2-16.4,8.72,0,4.56,3,6.72,6.64,6.72a9.63,9.63,0,0,0,9.36-6.48A7.06,7.06,0,0,0,455,168Z" transform="translate(-104.26 -123.7)"/><path class="cls-3" d="M270.08,241" transform="translate(-104.26 -123.7)"/><line class="cls-4" x1="357.57" y1="65.3" x2="159.81" y2="65.3"/></g><g id="Layer_4" data-name="Layer 4"><path class="cls-5" d="M282.1,218.25a13,13,0,0,1-5.56,1.12c-5.84,0-9.64-4-9.64-9.88s4.08-10.27,10.4-10.27a11.77,11.77,0,0,1,4.88,1l-.8,2.72a8.16,8.16,0,0,0-4.08-.92c-4.44,0-6.84,3.27-6.84,7.31,0,4.48,2.88,7.24,6.72,7.24a10,10,0,0,0,4.32-1Z" transform="translate(-104.26 -123.7)"/><path class="cls-5" d="M303.5,209.13c0,7.16-5,10.28-9.64,10.28-5.24,0-9.28-3.84-9.28-10,0-6.47,4.24-10.27,9.6-10.27C299.74,199.18,303.5,203.21,303.5,209.13Zm-15.36.2c0,4.24,2.44,7.44,5.88,7.44s5.88-3.16,5.88-7.52c0-3.28-1.64-7.44-5.8-7.44S288.14,205.65,288.14,209.33Z" transform="translate(-104.26 -123.7)"/><path class="cls-5" d="M307.94,204.85c0-2,0-3.63-.16-5.23h3.12l.2,3.19h.08a7.13,7.13,0,0,1,6.4-3.63c2.68,0,6.84,1.6,6.84,8.23V219H320.9V207.81c0-3.12-1.16-5.71-4.48-5.71a5,5,0,0,0-4.72,3.59,5.06,5.06,0,0,0-.24,1.64V219h-3.52Z" transform="translate(-104.26 -123.7)"/><path class="cls-5" d="M334.22,194.06v5.56h5v2.67h-5v10.44c0,2.4.68,3.76,2.64,3.76a7.83,7.83,0,0,0,2-.24l.16,2.64a8.62,8.62,0,0,1-3.12.48,4.88,4.88,0,0,1-3.8-1.48c-1-1-1.36-2.76-1.36-5V202.29h-3v-2.67h3V195Z" transform="translate(-104.26 -123.7)"/><path class="cls-5" d="M344.94,209.93c.08,4.76,3.12,6.72,6.64,6.72a12.73,12.73,0,0,0,5.36-1l.6,2.52a15.68,15.68,0,0,1-6.44,1.2c-6,0-9.52-3.92-9.52-9.76s3.44-10.43,9.08-10.43c6.32,0,8,5.55,8,9.11a13.28,13.28,0,0,1-.12,1.64Zm10.32-2.52c0-2.24-.92-5.72-4.88-5.72-3.56,0-5.12,3.28-5.4,5.72Z" transform="translate(-104.26 -123.7)"/><path class="cls-5" d="M363,204.85c0-2,0-3.63-.16-5.23H366l.2,3.19h.08a7.13,7.13,0,0,1,6.4-3.63c2.68,0,6.84,1.6,6.84,8.23V219H376V207.81c0-3.12-1.16-5.71-4.48-5.71a5,5,0,0,0-4.72,3.59,5.06,5.06,0,0,0-.24,1.64V219H363Z" transform="translate(-104.26 -123.7)"/><path class="cls-5" d="M389.3,194.06v5.56h5v2.67h-5v10.44c0,2.4.68,3.76,2.64,3.76a7.83,7.83,0,0,0,2-.24l.16,2.64a8.62,8.62,0,0,1-3.12.48,4.88,4.88,0,0,1-3.8-1.48c-1-1-1.36-2.76-1.36-5V202.29h-3v-2.67h3V195Z" transform="translate(-104.26 -123.7)"/><path class="cls-5" d="M410.26,208.49h.08c.48-.68,1.16-1.52,1.72-2.2l5.68-6.67H422l-7.48,7.95L423,219h-4.28l-6.68-9.28-1.8,2V219h-3.48V190.58h3.48Z" transform="translate(-104.26 -123.7)"/><path class="cls-5" d="M430.14,194.18a2.18,2.18,0,0,1-4.36,0A2.14,2.14,0,0,1,428,192,2.09,2.09,0,0,1,430.14,194.18ZM426.22,219V199.62h3.52V219Z" transform="translate(-104.26 -123.7)"/><path class="cls-5" d="M435.58,204.85c0-2,0-3.63-.16-5.23h3.12l.2,3.19h.08a7.13,7.13,0,0,1,6.4-3.63c2.68,0,6.84,1.6,6.84,8.23V219h-3.52V207.81c0-3.12-1.16-5.71-4.48-5.71a5,5,0,0,0-4.72,3.59,5.06,5.06,0,0,0-.24,1.64V219h-3.52Z" transform="translate(-104.26 -123.7)"/><path class="cls-5" d="M474.46,199.62c-.08,1.4-.17,2.95-.17,5.31v11.24c0,4.44-.87,7.16-2.75,8.84a10.26,10.26,0,0,1-7,2.32,12.5,12.5,0,0,1-6.44-1.6l.88-2.68a10.92,10.92,0,0,0,5.68,1.52c3.6,0,6.24-1.88,6.24-6.76v-2.16h-.08a6.91,6.91,0,0,1-6.16,3.24c-4.8,0-8.24-4.08-8.24-9.44,0-6.55,4.28-10.27,8.72-10.27a6.44,6.44,0,0,1,6,3.36h.08l.16-2.92Zm-3.64,7.63a5.14,5.14,0,0,0-5.12-5.31c-3.36,0-5.76,2.83-5.76,7.31,0,3.8,1.92,7,5.72,7a5.15,5.15,0,0,0,4.88-3.6,6.12,6.12,0,0,0,.28-1.88Z" transform="translate(-104.26 -123.7)"/><path class="cls-5" d="M479.66,215.37a9.23,9.23,0,0,0,4.64,1.4c2.56,0,3.76-1.28,3.76-2.88s-1-2.6-3.6-3.56c-3.48-1.24-5.12-3.16-5.12-5.48,0-3.12,2.52-5.67,6.68-5.67a9.66,9.66,0,0,1,4.76,1.2l-.88,2.56a7.53,7.53,0,0,0-4-1.13c-2.08,0-3.24,1.2-3.24,2.64,0,1.6,1.16,2.32,3.68,3.28,3.36,1.28,5.08,3,5.08,5.84,0,3.4-2.64,5.8-7.24,5.8a11,11,0,0,1-5.44-1.32Z" transform="translate(-104.26 -123.7)"/></g></svg>